<?xml version="1.0" standalone="no"?>
<!DOCTYPE svg PUBLIC "-//W3C//DTD SVG 20010904//EN"
 "http://www.w3.org/TR/2001/REC-SVG-20010904/DTD/svg10.dtd">
<svg version="1.0" xmlns="http://www.w3.org/2000/svg"
 width="937.000000pt" height="265.000000pt" viewBox="0 0 937.000000 265.000000"
 preserveAspectRatio="xMidYMid meet">
<metadata>
Created by potrace 1.15, written by Peter Selinger 2001-2017
</metadata>
<g transform="translate(0.000000,265.000000) scale(0.100000,-0.100000)"
fill="#000000" stroke="none">
<path d="M468 1785 c-5 -5 -8 -54 -8 -111 0 -117 -3 -114 96 -114 l64 0 0
-275 0 -275 263 0 c314 0 421 10 479 42 52 28 85 76 93 132 14 88 -27 160
-112 198 -24 10 -43 22 -43 26 0 4 17 16 37 27 47 25 93 97 93 144 0 41 -38
128 -66 153 -52 46 -75 49 -492 55 -219 3 -400 2 -404 -2z m646 -207 c19 -27
21 -59 4 -76 -8 -8 -48 -12 -115 -12 l-103 0 0 55 0 55 99 0 c92 0 101 -2 115
-22z m26 -283 c34 -17 47 -53 31 -84 -16 -28 -70 -41 -178 -41 l-93 0 0 70 0
70 105 0 c75 0 115 -4 135 -15z"/>
<path d="M1815 1780 c-221 -24 -352 -194 -332 -435 9 -107 38 -174 98 -230 83
-77 195 -115 344 -115 260 0 418 129 432 353 11 173 -48 299 -172 372 -82 48
-227 70 -370 55z m193 -228 c43 -19 73 -79 79 -157 4 -49 0 -68 -19 -105 -31
-60 -72 -80 -162 -80 -65 0 -70 2 -101 34 -62 66 -70 176 -20 263 14 24 27 43
28 43 1 0 20 6 41 14 45 15 105 11 154 -12z"/>
<path d="M2400 1401 l0 -391 145 0 145 0 0 115 c0 63 3 115 8 115 4 0 59 -52
122 -115 l115 -115 271 0 271 0 7 61 c3 34 6 95 6 135 0 41 3 74 8 74 4 -1 54
-61 112 -135 l105 -135 128 0 127 0 0 390 0 391 -122 -3 -123 -3 -3 -125 c-1
-68 -6 -128 -11 -133 -5 -5 -57 53 -116 128 l-107 136 -127 -3 -126 -3 -5
-275 -5 -275 -45 -3 c-78 -6 -170 8 -191 29 -29 29 -23 47 27 77 111 65 137
103 137 202 0 113 -45 181 -149 227 -33 14 -82 18 -321 21 l-283 4 0 -391z
m510 173 c19 -19 23 -77 7 -99 -13 -17 -29 -20 -121 -23 l-106 -4 0 72 0 72
105 -4 c57 -1 109 -8 115 -14z"/>
<path d="M4348 1688 c-3 -59 -1 -108 5 -115 6 -8 36 -13 82 -13 l72 0 6 -187
c4 -104 7 -228 7 -277 l0 -89 283 6 c220 4 293 9 334 21 73 23 152 97 189 178
27 59 29 71 29 193 0 124 -1 133 -29 188 -35 68 -98 130 -164 159 -59 26 -219
37 -563 37 l-247 1 -4 -102z m662 -123 c38 -34 60 -94 60 -165 0 -71 -22 -131
-60 -165 -19 -17 -39 -21 -131 -23 l-109 -4 0 192 0 192 109 -4 c92 -2 112 -6
131 -23z"/>
<path d="M5395 1777 c-3 -6 -4 -181 -3 -387 l3 -375 123 -3 122 -3 0 391 0
390 -120 0 c-88 0 -122 -3 -125 -13z"/>
<path d="M6039 1780 c-108 -11 -185 -45 -255 -115 -84 -83 -107 -143 -102
-276 3 -87 6 -103 38 -165 28 -55 48 -79 97 -115 109 -83 144 -91 407 -97 180
-4 230 -2 236 8 10 16 13 307 4 355 l-6 35 -109 0 c-63 0 -110 -4 -114 -10 -4
-6 -9 -45 -12 -86 l-6 -75 -76 7 c-109 10 -149 28 -172 78 -22 49 -24 95 -5
141 30 70 115 94 337 95 105 0 149 4 156 13 11 14 18 167 8 196 -6 20 -13 21
-183 20 -97 -1 -207 -5 -243 -9z"/>
<path d="M6497 1783 c-4 -3 -7 -179 -7 -390 l0 -383 125 0 125 0 0 390 0 390
-118 0 c-65 0 -122 -3 -125 -7z"/>
<path d="M6762 1678 l3 -113 115 -5 115 -5 2 -260 c2 -143 3 -266 3 -273 0
-10 28 -12 122 -10 l123 3 7 40 c4 22 7 145 7 273 l1 232 108 0 c59 0 113 4
120 8 9 6 12 36 10 113 l-3 104 -368 3 -368 2 3 -112z"/>
<path d="M7724 1780 c-18 -7 -36 -53 -97 -237 -142 -429 -168 -516 -154 -525
6 -4 68 -7 136 -6 l123 3 23 60 22 60 118 0 117 0 23 -60 22 -60 476 -3 477
-2 0 110 0 110 -202 2 -203 3 -5 275 -5 275 -122 3 -123 3 0 -238 c0 -252 -9
-463 -19 -463 -4 0 -58 156 -122 348 l-115 347 -174 2 c-96 1 -185 -2 -196 -7z
m189 -217 c3 -10 23 -69 46 -132 22 -62 38 -117 35 -122 -6 -10 -187 -13 -196
-3 -6 5 14 66 72 217 22 59 34 70 43 40z"/>
</g>
</svg>
