<?xml version="1.0" standalone="no"?>
<!DOCTYPE svg PUBLIC "-//W3C//DTD SVG 20010904//EN"
 "http://www.w3.org/TR/2001/REC-SVG-20010904/DTD/svg10.dtd">
<svg version="1.0" xmlns="http://www.w3.org/2000/svg"
 width="173.000000pt" height="174.000000pt" viewBox="0 0 173.000000 174.000000"
 preserveAspectRatio="xMidYMid meet">
<metadata>
Created by potrace 1.15, written by Peter Selinger 2001-2017
</metadata>
<g transform="translate(0.000000,174.000000) scale(0.100000,-0.100000)"
fill="#000000" stroke="none">
<path d="M852 1688 c-7 -7 -12 -20 -12 -30 0 -25 -31 -59 -45 -48 -6 5 -22 -6
-44 -31 l-33 -40 30 -62 c29 -59 50 -137 37 -137 -3 0 -24 20 -46 44 -22 24
-54 50 -70 57 -29 12 -32 10 -74 -37 -50 -56 -53 -64 -25 -71 11 -3 20 -9 20
-14 0 -5 14 -12 32 -17 17 -4 35 -16 40 -25 4 -9 12 -25 18 -34 45 -81 62
-122 76 -197 16 -80 16 -89 0 -148 -10 -35 -20 -78 -23 -95 -3 -20 -11 -33
-20 -33 -8 0 -28 -11 -45 -25 -16 -14 -42 -27 -56 -30 -15 -3 -43 -11 -62 -17
-25 -8 -35 -8 -38 1 -2 6 -10 11 -17 11 -17 0 -54 30 -125 100 -48 48 -59 66
-84 142 -24 71 -35 92 -60 108 -28 18 -29 20 -9 20 31 0 39 20 53 130 7 52 19
102 26 111 8 8 14 27 14 42 0 14 6 30 13 34 8 4 32 36 55 70 23 34 46 65 52
68 5 3 10 11 10 16 0 16 -36 -8 -110 -75 -81 -73 -147 -154 -174 -214 -11 -23
-22 -42 -26 -42 -17 0 -19 -33 -4 -56 9 -13 12 -24 6 -24 -6 0 -14 5 -17 10
-10 17 -25 1 -25 -28 0 -19 12 -37 43 -64 41 -36 41 -37 16 -38 -15 0 -38 9
-52 20 -14 11 -27 20 -30 20 -3 0 -11 -32 -17 -72 -9 -53 -9 -77 -1 -89 8 -14
7 -21 -4 -32 -12 -12 -12 -18 1 -41 10 -20 11 -33 4 -47 -24 -45 44 -297 76
-285 18 7 44 -3 44 -16 0 -6 -7 -16 -16 -23 -15 -11 -15 -14 0 -44 10 -17 25
-35 34 -38 9 -4 22 -14 29 -22 10 -14 13 -14 31 3 22 19 48 13 35 -7 -4 -7 -8
-19 -8 -27 0 -10 -8 -14 -24 -12 l-24 4 24 -29 c44 -54 138 -128 181 -144 68
-24 83 -33 83 -49 0 -8 21 -22 50 -33 54 -20 239 -57 288 -57 29 0 29 0 13 25
-14 22 -15 25 -1 25 8 0 15 -4 15 -10 0 -5 14 -10 30 -10 17 0 30 4 30 8 0 12
63 2 72 -11 10 -15 112 10 188 46 48 24 66 38 68 54 2 15 10 23 24 23 13 0 18
5 15 14 -3 7 -1 18 5 24 14 14 -21 32 -57 29 -24 -2 -28 2 -29 26 -1 23 2 27
25 27 15 0 29 5 31 12 3 8 18 7 53 -5 57 -20 79 -22 69 -5 -5 8 -2 9 10 5 51
-20 63 -18 85 9 12 15 24 39 28 53 3 14 16 35 29 47 35 31 21 73 -31 91 -22 7
-44 18 -50 24 -7 8 -3 9 15 3 14 -5 44 -7 67 -6 23 1 45 -2 48 -8 13 -20 23
-8 48 53 44 111 60 208 54 326 -9 172 -72 365 -126 389 -23 10 -30 21 -34 54
-5 34 -17 53 -79 115 -77 78 -144 130 -154 120 -4 -3 10 -25 29 -47 124 -145
171 -363 118 -545 -13 -44 -31 -87 -40 -95 -9 -8 -27 -29 -39 -47 -27 -38 -70
-66 -153 -98 -54 -21 -63 -23 -76 -10 -8 8 -23 15 -33 15 -27 0 -85 61 -115
120 -23 46 -25 58 -21 150 2 55 0 98 -4 95 -5 -3 -11 -1 -14 4 -3 5 2 12 11
15 14 6 15 9 4 15 -10 7 -7 13 13 26 15 10 26 25 24 34 -3 17 33 71 47 71 4 0
24 15 44 33 20 17 47 40 61 49 l25 16 -45 46 c-44 44 -46 45 -82 36 -24 -7
-49 -26 -72 -53 -19 -23 -37 -39 -41 -35 -3 3 3 33 15 67 11 33 20 69 20 80 0
11 5 23 10 26 22 14 7 43 -58 113 -37 39 -70 72 -73 72 -3 0 -10 -5 -17 -12z"/>
</g>
</svg>
